<svg xmlns="http://www.w3.org/2000/svg" version="1.1" xmlns:xlink="http://www.w3.org/1999/xlink" xmlns:svgjs="http://svgjs.dev/svgjs" viewBox="0 0 6.646412668415719 2.9554580785719695"><g transform="matrix(0.7869440520008467,0,0,0.7869440520008467,3.033747691250894,1.0734365325705497)"><rect width="7.446568563998026" height="7.446568563998026" x="-3.355458078571969" y="-3.209534281999013" fill="#ffffff"></rect><g transform="matrix(1,0,0,1,0,0)" clip-path="url(#SvgjsClipPath25188)"><g clip-path="url(#SvgjsClipPath25183b4678b26-6ec9-4d3b-bbf2-cef3fe05b379)"><path d=" M -0.9080439118430812 -0.5639010914948309 C -0.7257891443965041 -0.565032950406748 -0.5568924022976187 -0.4684504977286239 -0.46543671515563867 -0.31079917787689965 C -0.3739810280136586 -0.15314785802517555 -0.3739810280136586 0.04141390506546749 -0.46543671515563867 0.19906522491719159 C -0.5568924022976187 0.3567165447689157 -0.7257891443965041 0.4532989974470397 -0.9080439118430812 0.4521671385351228 L -1.3214700578529166 0.4521671385351228 C -1.373671900598091 0.4521671385351228 -1.4159898554051176 0.4098491837280962 -1.4159898554051176 0.3576473409829215 L -1.4159898554051176 -0.05577880502691368 C -1.4160331445517675 -0.33635606072411417 -1.1886211656639845 -0.5638469899209866 -0.9080439118432038 -0.5639010914948309 Z M -1.246720259415593 0.35980264316591126 C -1.204203460048721 0.35980264316591104 -1.1697367841704442 0.32533596728763425 -1.1697367841704442 0.2828191679207622 C -1.1697367841704442 0.2403023685538901 -1.204203460048721 0.2058356926756134 -1.246720259415593 0.2058356926756133 C -1.2892370587824653 0.2058356926756133 -1.323703734660742 0.24030236855388998 -1.323703734660742 0.2828191679207621 C -1.3237037349649832 0.3032364538537867 -1.3155929995445854 0.3228175021318108 -1.3011557976118975 0.33725470449476114 C -1.286718595679209 0.35169190685771123 -1.267137547642904 0.35980264286166985 -1.246720260562736 0.35980264316591126 Z" fill="#3361e1" transform="matrix(1,0,0,1,0,0)" fill-rule="evenodd"></path></g><g clip-path="url(#SvgjsClipPath25183b4678b26-6ec9-4d3b-bbf2-cef3fe05b379)"><path d=" M -2.0472582711465805 -0.5639010914948309 C -2.229513038593158 -0.565032950406748 -2.398409780692043 -0.4684504977286239 -2.489865467834023 -0.31079917787689965 C -2.5813211549760036 -0.15314785802517544 -2.5813211549760036 0.04141390506546749 -2.489865467834023 0.19906522491719159 C -2.3984097806920426 0.3567165447689158 -2.2295130385931574 0.4532989974470397 -2.04725827114658 0.4521671385351228 L -1.6338321251367454 0.4521671385351228 C -1.5816302823915707 0.4521671385351228 -1.5393123275845444 0.4098491837280962 -1.5393123275845444 0.3576473409829215 L -1.5393123275845444 -0.05577880502691368 C -1.5392863425228376 -0.19051862644864448 -1.5927879496008837 -0.3197498916983632 -1.6880468559078792 -0.4150418689107829 C -1.7833057622148747 -0.5103338461232024 -1.9125184488231644 -0.5638803072335755 -2.047258271147048 -0.5639010914948309 Z M -1.7085819235740687 0.35980264316591126 C -1.6774432325359339 0.35981056851384885 -1.64936625107519 0.3410591725850083 -1.6374444979574838 0.31229304762908083 C -1.6255227448397778 0.2835269226731535 -1.632104286953464 0.2504117442706013 -1.6541198646883908 0.22839056175519212 C -1.6761354424233177 0.20636937923978282 -1.709248944420946 0.19977940786805903 -1.7380181031281055 0.21169383818015697 C -1.766787261835265 0.22360826849225512 -1.785545804154438 0.2516804758740566 -1.7855458051630086 0.2828191679207622 C -1.7855458065794139 0.3253283165925782 -1.7510910710122671 0.35979182379604446 -1.7085819236456927 0.35980264316589283 Z" fill="#3361e1" transform="matrix(1,0,0,1,0,0)" fill-rule="evenodd"></path></g><g clip-path="url(#SvgjsClipPath25183b4678b26-6ec9-4d3b-bbf2-cef3fe05b379)"><path d=" M -0.9080439118430812 1.591401091494831 C -0.7257891443965041 1.5925329504067482 -0.5568924022976187 1.4959504977286238 -0.46543671515563867 1.3382991778768996 C -0.3739810280136586 1.1806478580251758 -0.3739810280136586 0.9860860949345328 -0.46543671515563867 0.8284347750828084 C -0.5568924022976187 0.6707834552310844 -0.7257891443965041 0.5742010025529604 -0.9080439118430812 0.5753328614648775 L -1.3214700578529166 0.5753328614648775 C -1.373671900598091 0.5753328614648775 -1.4159898554051176 0.6176508162719038 -1.4159898554051176 0.6698526590170785 L -1.4159898554051176 1.083278805026914 C -1.4160331445517675 1.363856060724114 -1.1886211656639847 1.5913469899209862 -0.9080439118432042 1.591401091494831 Z M -1.246720259415593 0.8216447136681776 C -1.2155815673688875 0.8216447126596073 -1.1875093599870856 0.8028861703404341 -1.175594929674988 0.7741170116332744 C -1.1636804993628898 0.7453478529261152 -1.1702704707346134 0.7122343509284864 -1.1922916532500227 0.6902187731935597 C -1.214312835765432 0.6682031954586328 -1.247428014167984 0.6616216533449469 -1.2761941391239118 0.6735434064626528 C -1.304960264079839 0.685465159580359 -1.3237116600086796 0.7135421410411026 -1.323703734660742 0.7446808320792376 C -1.3237037353409862 0.765096317798902 -1.3155923743834772 0.7846753521764228 -1.30115460873689 0.7991094431826461 C -1.2867168430903027 0.8135435341888694 -1.267135744614348 0.8216499110746373 -1.2467202594859297 0.8216447136681954 Z" fill="#3361e1" transform="matrix(1,0,0,1,0,0)" fill-rule="evenodd"></path></g><g clip-path="url(#SvgjsClipPath25183b4678b26-6ec9-4d3b-bbf2-cef3fe05b379)"><path d=" M -2.0472582711465805 1.591401091494831 C -2.229513038593158 1.5925329504067482 -2.398409780692043 1.4959504977286238 -2.489865467834023 1.3382991778768996 C -2.5813211549760036 1.1806478580251758 -2.5813211549760036 0.9860860949345324 -2.489865467834023 0.8284347750828084 C -2.3984097806920426 0.6707834552310842 -2.2295130385931574 0.5742010025529601 -2.04725827114658 0.5753328614648775 L -1.6338321251367454 0.5753328614648775 C -1.5816302823915707 0.5753328614648775 -1.5393123275845444 0.6176508162719038 -1.5393123275845444 0.6698526590170785 L -1.5393123275845444 1.083278805026914 C -1.53928634252276 1.2180186264483517 -1.5927879496007318 1.3472498916981017 -1.6880468559076727 1.4425418689105762 C -1.7833057622146131 1.5378338461230503 -1.9125184488228721 1.5913803072334982 -2.047258271146756 1.591401091494831 Z M -1.7085819235740687 0.8216447136681776 C -1.6774414496826209 0.8216526384615112 -1.6493632289736109 0.8028991219732325 -1.637442624472731 0.77413059115708 C -1.6255220199718512 0.7453620603409278 -1.6321071540545078 0.7122453445017408 -1.6541267950255398 0.690225703530709 C -1.6761464359965719 0.668206062559677 -1.7092631518357586 0.6616209284770204 -1.738031682651911 0.6735415329779001 C -1.7668002134680632 0.6854621374787798 -1.7855537299563422 0.7135403581877898 -1.7855458051630086 0.7446808320792379 C -1.7855349891560945 0.7871823292256209 -1.7510834207204908 0.8216338976612422 -1.7085819235740884 0.8216447136681776 Z" fill="#3361e1" transform="matrix(1,0,0,1,0,0)" fill-rule="evenodd"></path></g></g><g><path d=" M 0.20550000000000002 1.0335 Q 0.0555 1.0335 0.0555 0.8835000000000001 Q 0.0555 0.7575000000000001 0.14250000000000002 0.6345000000000001 Q 0.23700000000000002 0.49950000000000006 0.36 0.49950000000000006 Q 0.47400000000000003 0.49950000000000006 0.462 0.6030000000000001 Q 0.4605 0.6300000000000001 0.4335 0.6615000000000001 Q 0.40800000000000003 0.6915 0.384 0.6915 Q 0.3705 0.6915 0.3615 0.6825000000000001 Q 0.399 0.645 0.40800000000000003 0.6060000000000001 Q 0.41100000000000003 0.5955000000000001 0.41250000000000003 0.58725 Q 0.41400000000000003 0.5790000000000001 0.41400000000000003 0.5715000000000001 Q 0.41400000000000003 0.5325000000000001 0.378 0.5325000000000001 Q 0.3255 0.5325000000000001 0.231 0.6600000000000001 Q 0.14100000000000001 0.7815000000000001 0.14100000000000001 0.897 Q 0.14100000000000001 1.0065000000000002 0.225 1.0065000000000002 Q 0.306 1.0065000000000002 0.3825 0.9045000000000001 L 0.3915 0.8925000000000001 L 0.41250000000000003 0.9045000000000001 L 0.402 0.9195000000000001 Q 0.3225 1.0335 0.20550000000000002 1.0335 M 0.420029296875 1.038 Q 0.471029296875 0.921 0.566279296875 0.7027500000000001 Q 0.661529296875 0.48450000000000004 0.802529296875 0.1665000000000001 Q 0.804029296875 0.16200000000000003 0.804779296875 0.15750000000000008 Q 0.8055292968750001 0.15300000000000002 0.8055292968750001 0.14850000000000008 Q 0.8055292968750001 0.12750000000000006 0.7875292968750001 0.10350000000000004 L 0.868529296875 0.10350000000000004 Q 0.9105292968750001 0.10350000000000004 0.9105292968750001 0.12300000000000011 Q 0.9105292968750001 0.13350000000000006 0.9015292968749999 0.15450000000000008 Q 0.855029296875 0.2550000000000001 0.7815292968750001 0.4185000000000001 Q 0.7080292968749999 0.5820000000000001 0.6060292968750001 0.8085000000000001 Q 0.628529296875 0.7770000000000001 0.660029296875 0.744 Q 0.691529296875 0.7110000000000001 0.730529296875 0.6765000000000001 Q 0.757529296875 0.651 0.790529296875 0.62775 Q 0.823529296875 0.6045 0.862529296875 0.5835000000000001 Q 0.951029296875 0.534 0.993029296875 0.534 Q 1.003529296875 0.534 1.008029296875 0.5355000000000001 Q 0.984029296875 0.5775000000000001 0.963779296875 0.6165 Q 0.943529296875 0.6555000000000001 0.925529296875 0.6900000000000001 Q 0.838529296875 0.8580000000000001 0.828029296875 0.9225000000000001 Q 0.823529296875 0.9450000000000001 0.823529296875 0.9615 Q 0.823529296875 1.002 0.853529296875 1.002 Q 0.894029296875 1.002 0.963029296875 0.9015000000000001 L 0.985529296875 0.915 Q 0.9075292968750001 1.0335 0.8310292968749999 1.0335 Q 0.736529296875 1.0335 0.736529296875 0.936 Q 0.736529296875 0.8565 0.834029296875 0.7005000000000001 Q 0.849029296875 0.6765000000000001 0.849029296875 0.6600000000000001 Q 0.849029296875 0.6420000000000001 0.832529296875 0.6420000000000001 Q 0.816029296875 0.6420000000000001 0.7897792968749999 0.6592500000000001 Q 0.763529296875 0.6765000000000001 0.727529296875 0.7095 Q 0.6705292968750001 0.762 0.6202792968749999 0.83625 Q 0.570029296875 0.9105000000000001 0.5265292968749999 1.0065000000000002 Q 0.516029296875 1.0290000000000001 0.478529296875 1.0305 Q 0.429029296875 1.0335 0.420029296875 1.038 M 1.387557861328125 1.0305 Q 1.354557861328125 1.0305 1.333557861328125 1.0110000000000001 Q 1.303557861328125 0.9855 1.303557861328125 0.9255000000000001 Q 1.303557861328125 0.8865000000000001 1.317057861328125 0.8370000000000001 Q 1.266057861328125 0.9225000000000001 1.210557861328125 0.9765 Q 1.153557861328125 1.0290000000000001 1.108557861328125 1.0290000000000001 Q 1.069557861328125 1.0290000000000001 1.047057861328125 0.9945 Q 1.023057861328125 0.9615 1.023057861328125 0.903 Q 1.023057861328125 0.7605000000000001 1.150557861328125 0.6090000000000001 Q 1.171557861328125 0.5835000000000001 1.198557861328125 0.5625 Q 1.225557861328125 0.5415000000000001 1.257057861328125 0.525 Q 1.3215578613281251 0.4920000000000001 1.381557861328125 0.4920000000000001 Q 1.455057861328125 0.4920000000000001 1.498557861328125 0.54 Q 1.5090578613281251 0.5505 1.5090578613281251 0.5640000000000001 Q 1.5090578613281251 0.5895000000000001 1.482057861328125 0.5835000000000001 Q 1.4670578613281249 0.5295000000000001 1.411557861328125 0.5295000000000001 Q 1.348557861328125 0.5295000000000001 1.2630578613281251 0.6180000000000001 Q 1.233057861328125 0.651 1.206057861328125 0.68625 Q 1.179057861328125 0.7215 1.155057861328125 0.7605000000000001 Q 1.090557861328125 0.8685 1.090557861328125 0.936 Q 1.090557861328125 0.9870000000000001 1.129557861328125 0.9870000000000001 Q 1.173057861328125 0.9870000000000001 1.230057861328125 0.921 Q 1.261557861328125 0.885 1.294557861328125 0.8325 Q 1.327557861328125 0.78 1.363557861328125 0.7110000000000001 Q 1.378557861328125 0.6825000000000001 1.390557861328125 0.6645000000000001 Q 1.402557861328125 0.6465000000000001 1.410057861328125 0.6375000000000001 Q 1.434057861328125 0.6135 1.4670578613281249 0.615 L 1.4970578613281251 0.6195 Q 1.516557861328125 0.6240000000000001 1.530057861328125 0.621 Q 1.516557861328125 0.6345000000000001 1.4978078613281252 0.6637500000000001 Q 1.479057861328125 0.6930000000000001 1.455057861328125 0.7395 Q 1.429557861328125 0.789 1.413057861328125 0.8295000000000001 Q 1.3965578613281249 0.8700000000000001 1.390557861328125 0.9015000000000001 Q 1.387557861328125 0.9165000000000001 1.386057861328125 0.9292500000000001 Q 1.384557861328125 0.9420000000000001 1.384557861328125 0.9525000000000001 Q 1.384557861328125 0.9915 1.405557861328125 0.9915 Q 1.435557861328125 0.9915 1.488057861328125 0.9255000000000001 L 1.494057861328125 0.918 L 1.515057861328125 0.9315000000000001 L 1.5090578613281251 0.9405000000000001 Q 1.447557861328125 1.0305 1.387557861328125 1.0305 M 1.6950146484375 1.0275 Q 1.5975146484375 1.0275 1.5975146484375 0.921 Q 1.5975146484375 0.9000000000000001 1.6012646484375 0.8775000000000001 Q 1.6050146484375 0.8550000000000001 1.6140146484375 0.8325 Q 1.6935146484375 0.6225 1.7490146484375 0.49050000000000005 L 1.6515146484375 0.49050000000000005 L 1.6695146484375 0.4575 L 1.7625146484375 0.4575 L 1.7985146484375 0.35250000000000004 Q 1.8180146484375 0.29700000000000004 1.8315146484375 0.2865000000000001 Q 1.8420146484375 0.279 1.8795146484375 0.279 L 1.9440146484375 0.2805000000000001 Q 1.9140146484375 0.30600000000000005 1.8990146484375 0.3420000000000001 L 1.8495146484375 0.4575 L 1.9635146484375001 0.4575 L 1.9455146484374999 0.49050000000000005 L 1.8360146484375 0.49050000000000005 Q 1.8255146484375 0.5145000000000001 1.8157646484375 0.5385000000000001 Q 1.8060146484375 0.5625 1.7940146484375 0.5880000000000001 Q 1.7625146484375 0.657 1.7400146484375 0.7185000000000001 Q 1.7130146484375 0.789 1.6972646484375 0.8400000000000001 Q 1.6815146484375 0.891 1.6785146484375 0.921 Q 1.6725146484375 0.9945 1.7175146484375001 0.9945 Q 1.7595146484375 0.9945 1.8195146484375 0.9045000000000001 L 1.8375146484375 0.9255000000000001 Q 1.7655146484375 1.0275 1.6950146484375 1.0275 M 2.023505859375 1.0275 Q 1.926005859375 1.0275 1.926005859375 0.921 Q 1.926005859375 0.9000000000000001 1.929755859375 0.8775000000000001 Q 1.933505859375 0.8550000000000001 1.942505859375 0.8325 Q 2.022005859375 0.6225 2.077505859375 0.49050000000000005 L 1.980005859375 0.49050000000000005 L 1.998005859375 0.4575 L 2.091005859375 0.4575 L 2.127005859375 0.35250000000000004 Q 2.146505859375 0.29700000000000004 2.160005859375 0.2865000000000001 Q 2.170505859375 0.279 2.208005859375 0.279 L 2.272505859375 0.2805000000000001 Q 2.242505859375 0.30600000000000005 2.227505859375 0.3420000000000001 L 2.1780058593750002 0.4575 L 2.292005859375 0.4575 L 2.274005859375 0.49050000000000005 L 2.164505859375 0.49050000000000005 Q 2.154005859375 0.5145000000000001 2.144255859375 0.5385000000000001 Q 2.134505859375 0.5625 2.122505859375 0.5880000000000001 Q 2.091005859375 0.657 2.068505859375 0.7185000000000001 Q 2.041505859375 0.789 2.025755859375 0.8400000000000001 Q 2.010005859375 0.891 2.007005859375 0.921 Q 2.001005859375 0.9945 2.046005859375 0.9945 Q 2.088005859375 0.9945 2.148005859375 0.9045000000000001 L 2.166005859375 0.9255000000000001 Q 2.094005859375 1.0275 2.023505859375 1.0275 M 2.4584970703125 0.44700000000000006 Q 2.4074970703125 0.44700000000000006 2.4074970703125 0.3975000000000001 Q 2.4074970703125 0.3480000000000001 2.4554970703125 0.3480000000000001 Q 2.5064970703125002 0.3480000000000001 2.5064970703125002 0.3975000000000001 Q 2.5064970703125002 0.44700000000000006 2.4584970703125 0.44700000000000006 M 2.2544970703125 1.0275 Q 2.2109970703125 1.0275 2.2109970703125 0.9840000000000001 Q 2.2109970703125 0.9570000000000001 2.2289970703125 0.9105000000000001 Q 2.2679970703125 0.8145000000000001 2.3024970703125 0.7335 Q 2.3369970703125 0.6525000000000001 2.3669970703125 0.5865 Q 2.3714970703125 0.5790000000000001 2.3714970703125 0.5700000000000001 Q 2.3714970703125 0.549 2.3519970703125 0.525 L 2.4344970703125 0.5235000000000001 Q 2.4764970703125 0.5235000000000001 2.4764970703125 0.5445000000000001 Q 2.4764970703125 0.5505 2.4734970703125 0.55725 Q 2.4704970703124998 0.5640000000000001 2.4659970703125 0.5760000000000001 L 2.3279970703125 0.8955000000000001 Q 2.3069970703125 0.9450000000000001 2.3069970703125 0.9795 Q 2.3069970703125 1.0155 2.3294970703125 1.0275 L 2.2544970703125 1.0275 M 2.53349267578125 1.0275 Q 2.49149267578125 1.0275 2.49149267578125 0.9840000000000001 Q 2.49149267578125 0.9570000000000001 2.50949267578125 0.9105000000000001 L 2.67299267578125 0.49050000000000005 L 2.55599267578125 0.49050000000000005 L 2.57399267578125 0.4575 L 2.68649267578125 0.4575 Q 2.69999267578125 0.42300000000000004 2.71274267578125 0.39150000000000007 Q 2.72549267578125 0.3600000000000001 2.73899267578125 0.3315 Q 2.76899267578125 0.26250000000000007 2.79524267578125 0.2137500000000001 Q 2.82149267578125 0.16500000000000004 2.84099267578125 0.13350000000000006 Q 2.92649267578125 0 3.05249267578125 0 Q 3.11849267578125 0 3.1499926757812498 0.0525000000000001 Q 3.1634926757812503 0.07500000000000007 3.1634926757812503 0.12300000000000011 Q 3.1634926757812503 0.15000000000000002 3.15599267578125 0.16800000000000004 L 3.13049267578125 0.1695000000000001 Q 3.13349267578125 0.15450000000000008 3.13574267578125 0.14175000000000004 Q 3.13799267578125 0.12900000000000011 3.13799267578125 0.11850000000000005 Q 3.13799267578125 0.08550000000000002 3.12299267578125 0.06900000000000006 Q 3.09599267578125 0.03750000000000009 3.06449267578125 0.03750000000000009 Q 2.98499267578125 0.03750000000000009 2.89799267578125 0.1965 Q 2.88299267578125 0.2250000000000001 2.85149267578125 0.2902500000000001 Q 2.81999267578125 0.35550000000000004 2.77349267578125 0.4575 L 2.97899267578125 0.4575 L 2.96099267578125 0.49050000000000005 L 2.75999267578125 0.49050000000000005 L 2.60849267578125 0.8955000000000001 Q 2.58899267578125 0.9450000000000001 2.58899267578125 0.9810000000000001 Q 2.58899267578125 1.0170000000000001 2.60849267578125 1.0275 L 2.53349267578125 1.0275 M 2.783997802734375 1.419 Q 2.702997802734375 1.419 2.663997802734375 1.3665 Q 2.647497802734375 1.3410000000000002 2.647497802734375 1.2990000000000002 Q 2.647497802734375 1.266 2.656497802734375 1.2510000000000001 L 2.684997802734375 1.2495 Q 2.675997802734375 1.2735 2.675997802734375 1.296 Q 2.675997802734375 1.3770000000000002 2.770497802734375 1.3770000000000002 Q 2.852997802734375 1.3770000000000002 2.941497802734375 1.248 Q 2.974497802734375 1.2000000000000002 3.008997802734375 1.1325 Q 3.043497802734375 1.0650000000000002 3.077997802734375 0.9780000000000001 Q 3.101997802734375 0.921 3.123747802734375 0.8640000000000001 Q 3.145497802734375 0.807 3.167997802734375 0.75 Q 3.128997802734375 0.8190000000000001 3.102747802734375 0.8625 Q 3.076497802734375 0.9060000000000001 3.064497802734375 0.9225000000000001 Q 2.986497802734375 1.0275 2.911497802734375 1.0275 Q 2.827497802734375 1.0275 2.827497802734375 0.918 Q 2.827497802734375 0.8460000000000001 2.860497802734375 0.7650000000000001 Q 2.908497802734375 0.6480000000000001 2.959497802734375 0.5445000000000001 Q 2.975997802734375 0.5130000000000001 3.016497802734375 0.5130000000000001 L 3.095997802734375 0.5130000000000001 Q 3.053997802734375 0.5430000000000001 3.007497802734375 0.639 Q 2.902497802734375 0.8505 2.902497802734375 0.9405000000000001 Q 2.902497802734375 0.9900000000000001 2.938497802734375 0.9900000000000001 Q 3.007497802734375 0.9900000000000001 3.113997802734375 0.8025000000000001 Q 3.121497802734375 0.7875000000000001 3.154497802734375 0.7222500000000001 Q 3.187497802734375 0.657 3.242997802734375 0.5430000000000001 Q 3.259497802734375 0.5115000000000001 3.2999978027343753 0.5115000000000001 L 3.395997802734375 0.5115000000000001 Q 3.376497802734375 0.5265000000000001 3.341997802734375 0.5655000000000001 Q 3.329997802734375 0.5850000000000001 3.312747802734375 0.6165 Q 3.295497802734375 0.6480000000000001 3.2759978027343752 0.6930000000000001 Q 3.251997802734375 0.7515000000000001 3.212997802734375 0.8527500000000001 Q 3.173997802734375 0.9540000000000001 3.112497802734375 1.0965 Q 3.080997802734375 1.1715 3.050247802734375 1.22475 Q 3.019497802734375 1.278 2.993997802734375 1.3110000000000002 Q 2.906997802734375 1.419 2.783997802734375 1.419" fill="#000000" fill-rule="nonzero"></path></g><g></g></g><defs><clipPath id="SvgjsClipPath25188"><path d=" M -2.555302182989662 -0.5639010914948309 h 2.155302182989662 v 2.155302182989662 h -2.155302182989662 Z"></path></clipPath><clipPath id="SvgjsClipPath25183b4678b26-6ec9-4d3b-bbf2-cef3fe05b379"><path d=" M -2.555302182989662 -0.5639010914948309 L -0.3999999999999999 -0.5639010914948309 L -0.3999999999999999 1.591401091494831 L -2.555302182989662 1.591401091494831 Z"></path></clipPath></defs></svg>